<svg width="24" height="25" viewBox="0 0 24 25" fill="none" xmlns="http://www.w3.org/2000/svg">
<path d="M20.1431 16.9641C20.0924 17.0489 20.0255 17.1227 19.9461 17.1815C19.8668 17.2403 19.7767 17.2829 19.6808 17.3067C19.585 17.3306 19.4854 17.3353 19.3878 17.3206C19.2902 17.3059 19.1964 17.272 19.1119 17.221L12.75 13.4026L12.75 20.3279C12.75 20.5268 12.671 20.7176 12.5303 20.8582C12.3897 20.9989 12.1989 21.0779 12 21.0779C11.8011 21.0779 11.6103 20.9989 11.4697 20.8582C11.329 20.7176 11.25 20.5268 11.25 20.3279V13.4026L4.88624 17.221C4.80175 17.2729 4.70781 17.3075 4.60985 17.3229C4.51189 17.3383 4.41185 17.3341 4.31553 17.3105C4.2192 17.287 4.12851 17.2445 4.04869 17.1857C3.96886 17.1269 3.9015 17.0528 3.85049 16.9678C3.79948 16.8827 3.76584 16.7884 3.75152 16.6903C3.73719 16.5922 3.74247 16.4922 3.76704 16.3961C3.79161 16.3001 3.83498 16.2098 3.89466 16.1306C3.95433 16.0514 4.02911 15.9849 4.11468 15.9348L10.5422 12.0779L4.11468 8.22101C4.02911 8.1709 3.95433 8.10432 3.89466 8.02513C3.83498 7.94593 3.79161 7.85569 3.76704 7.75963C3.74247 7.66356 3.73719 7.56357 3.75152 7.46545C3.76584 7.36733 3.79948 7.27303 3.85049 7.18799C3.9015 7.10296 3.96886 7.02888 4.04869 6.97005C4.12851 6.91122 4.2192 6.86881 4.31553 6.84526C4.41185 6.8217 4.51189 6.81749 4.60985 6.83285C4.70781 6.84821 4.80175 6.88285 4.88624 6.93476L11.25 10.7532L11.25 3.82788C11.25 3.62897 11.329 3.4382 11.4697 3.29755C11.6103 3.1569 11.8011 3.07788 12 3.07788C12.1989 3.07788 12.3897 3.1569 12.5303 3.29755C12.671 3.4382 12.75 3.62897 12.75 3.82788L12.75 10.7532L19.1137 6.93476C19.1982 6.88285 19.2922 6.84821 19.3901 6.83285C19.4881 6.81749 19.5881 6.8217 19.6845 6.84526C19.7808 6.86881 19.8715 6.91122 19.9513 6.97005C20.0311 7.02888 20.0985 7.10296 20.1495 7.18799C20.2005 7.27303 20.2341 7.36733 20.2485 7.46545C20.2628 7.56357 20.2575 7.66356 20.2329 7.75963C20.2084 7.85569 20.165 7.94593 20.1053 8.02513C20.0457 8.10432 19.9709 8.1709 19.8853 8.22101L13.4578 12.0779L19.8853 15.9348C19.9699 15.9854 20.0436 16.0522 20.1023 16.1313C20.1611 16.2105 20.2036 16.3004 20.2275 16.396C20.2515 16.4916 20.2564 16.591 20.2419 16.6885C20.2274 16.786 20.1938 16.8796 20.1431 16.9641Z" fill="#34749C"/>
</svg>
