<svg width="24" height="25" viewBox="0 0 24 25" fill="none" xmlns="http://www.w3.org/2000/svg">
<path d="M19.8 3.07788L4.2 3.07788C3.88174 3.07788 3.57652 3.20431 3.35147 3.42935C3.12643 3.6544 3 3.95962 3 4.27788L3 19.8779C3 20.1961 3.12643 20.5014 3.35147 20.7264C3.57652 20.9515 3.88174 21.0779 4.2 21.0779L19.8 21.0779C20.1183 21.0779 20.4235 20.9515 20.6485 20.7264C20.8736 20.5014 21 20.1961 21 19.8779L21 4.27788C21 3.95962 20.8736 3.6544 20.6485 3.42935C20.4235 3.20431 20.1183 3.07788 19.8 3.07788ZM8.3322 18.4343H5.6244L5.6244 9.82788H8.3322L8.3322 18.4343ZM6.978 8.64648C6.6667 8.64553 6.36266 8.55235 6.10429 8.37872C5.84591 8.20508 5.64479 7.95876 5.52632 7.67089C5.40784 7.38301 5.37734 7.06649 5.43865 6.76128C5.49996 6.45608 5.65034 6.17589 5.8708 5.9561C6.09126 5.73631 6.37191 5.58679 6.67729 5.5264C6.98268 5.46602 7.29912 5.49749 7.58663 5.61684C7.87414 5.73618 8.11984 5.93806 8.29269 6.19696C8.46555 6.45586 8.5578 6.76018 8.5578 7.07148C8.55788 7.27874 8.51704 7.48398 8.43761 7.67541C8.35819 7.86685 8.24175 8.04072 8.09497 8.18705C7.9482 8.33338 7.77397 8.44929 7.58229 8.52813C7.39062 8.60697 7.18526 8.64719 6.978 8.64648ZM18.3726 18.4343H15.72V14.2715C15.72 13.2593 15.72 12.0215 14.31 12.0215C12.9 12.0215 12.7302 13.0907 12.7302 14.2151V18.4907H10.08L10.08 9.82788L12.5616 9.82788V11.0093H12.618C12.8739 10.5668 13.2453 10.2022 13.6925 9.95445C14.1396 9.70673 14.6457 9.5852 15.1566 9.60288C17.8644 9.60288 18.372 11.4029 18.372 13.7093L18.3726 18.4343Z" fill="#2148A5"/>
</svg>
