<svg width="60" height="61" viewBox="0 0 60 61" fill="none" xmlns="http://www.w3.org/2000/svg">
<path d="M24.3211 43.6576C24.2297 44.0208 21.9445 52.5779 9.37498 52.5779C8.87769 52.5779 8.40078 52.3803 8.04915 52.0287C7.69752 51.6771 7.49998 51.2001 7.49998 50.7029C7.49998 38.1333 16.057 35.8482 16.4203 35.7568C16.903 35.6362 17.4138 35.7123 17.8403 35.9683C18.2669 36.2243 18.5743 36.6393 18.6949 37.122C18.8155 37.6047 18.7394 38.1155 18.4834 38.5421C18.2273 38.9686 17.8123 39.276 17.3297 39.3966C17.1187 39.4552 12.075 40.9294 11.339 48.7388C19.1484 48.0029 20.625 42.9685 20.6859 42.7341C20.8102 42.2521 21.121 41.8391 21.5497 41.5862C21.9785 41.3332 22.4902 41.261 22.9722 41.3853C23.4543 41.5096 23.8672 41.8203 24.1202 42.2491C24.3731 42.6779 24.4454 43.1896 24.3211 43.6716V43.6576ZM46.1179 27.8607L45 28.9786V42.6497C45.0028 43.1441 44.9072 43.6341 44.7189 44.0911C44.5306 44.5482 44.2533 44.9633 43.9031 45.3122L35.8593 53.3513C35.5125 53.7007 35.0999 53.9779 34.6453 54.1669C34.1907 54.356 33.7032 54.4532 33.2109 54.4529C32.8046 54.4528 32.401 54.3871 32.0156 54.2583C31.3539 54.0395 30.7667 53.6399 30.3202 53.1048C29.8737 52.5697 29.5858 51.9204 29.489 51.2302L28.2304 42.2091L17.8687 31.8474L8.85232 30.5888C8.16125 30.4919 7.51093 30.204 6.97452 29.7577C6.43811 29.3113 6.03689 28.7241 5.816 28.0622C5.59511 27.4002 5.5633 26.6898 5.72416 26.0107C5.88502 25.3317 6.23216 24.711 6.72654 24.2185L14.7656 16.1747C15.1145 15.8246 15.5296 15.5472 15.9867 15.3589C16.4438 15.1706 16.9338 15.0751 17.4281 15.0779L31.0992 15.0779L32.2172 13.9599C38.4703 7.70912 46.0054 7.43959 48.9539 7.61537C49.8681 7.67093 50.7304 8.05916 51.3781 8.70681C52.0257 9.35447 52.4139 10.2168 52.4695 11.131C52.6406 14.0724 52.3711 21.6076 46.1203 27.8607H46.1179ZM9.37498 26.8763L18.082 28.0904L27.3492 18.8279L17.4281 18.8279L9.37498 26.8763ZM21.4031 30.0779L30 38.6747L43.4648 25.2099C45.2794 23.4075 46.6872 21.2377 47.5935 18.8461C48.4999 16.4545 48.8838 13.8966 48.7195 11.3443C46.1685 11.1861 43.6132 11.574 41.2241 12.4822C38.8351 13.3904 36.6673 14.7979 34.8656 16.6107L21.4031 30.0779ZM41.25 32.7286L31.9851 41.9935L33.2039 50.7029L41.25 42.6497V32.7286Z" fill="#3981A6"/>
</svg>
