<svg width="24" height="25" viewBox="0 0 24 25" fill="none" xmlns="http://www.w3.org/2000/svg">
<path d="M16.5 15.0779C15.9997 15.0777 15.5044 15.178 15.0435 15.3727C14.5827 15.5673 14.1655 15.8525 13.8169 16.2113L9.49498 13.4335C9.83494 12.5617 9.83494 11.594 9.49498 10.7223L13.8169 7.94446C14.466 8.60944 15.339 9.00969 16.2665 9.06761C17.194 9.12552 18.11 8.83697 18.8369 8.25791C19.5637 7.67884 20.0497 6.85051 20.2005 5.93351C20.3513 5.01651 20.1563 4.07617 19.6532 3.2948C19.1501 2.51344 18.3748 1.94671 17.4776 1.7045C16.5804 1.46229 15.6252 1.56185 14.7972 1.98388C13.9693 2.40591 13.3275 3.12034 12.9964 3.98866C12.6652 4.85699 12.6683 5.81733 13.005 6.68352L8.68311 9.46133C8.16267 8.92703 7.49472 8.56006 6.76464 8.40734C6.03457 8.25462 5.27553 8.32309 4.58457 8.60399C3.8936 8.88489 3.3021 9.36546 2.88568 9.98427C2.46926 10.6031 2.24683 11.332 2.24683 12.0779C2.24683 12.8238 2.46926 13.5527 2.88568 14.1715C3.3021 14.7903 3.8936 15.2709 4.58457 15.5518C5.27553 15.8327 6.03457 15.9012 6.76464 15.7484C7.49472 15.5957 8.16267 15.2288 8.68311 14.6945L13.005 17.4723C12.7155 18.219 12.6726 19.0388 12.8827 19.8117C13.0928 20.5845 13.5449 21.2698 14.1726 21.7672C14.8004 22.2646 15.5709 22.5479 16.3713 22.5756C17.1718 22.6034 17.9601 22.3742 18.6208 21.9215C19.2815 21.4689 19.78 20.8166 20.0431 20.0601C20.3063 19.3037 20.3204 18.4829 20.0833 17.7179C19.8463 16.9529 19.3705 16.2838 18.7257 15.8088C18.0809 15.3337 17.3009 15.0776 16.5 15.0779ZM16.5 3.07789C16.945 3.07789 17.38 3.20985 17.75 3.45709C18.12 3.70432 18.4084 4.05572 18.5787 4.46686C18.749 4.87799 18.7936 5.33039 18.7067 5.76685C18.6199 6.2033 18.4056 6.60422 18.091 6.91888C17.7763 7.23355 17.3754 7.44784 16.9389 7.53466C16.5025 7.62148 16.0501 7.57692 15.6389 7.40662C15.2278 7.23633 14.8764 6.94794 14.6292 6.57793C14.3819 6.20792 14.25 5.7729 14.25 5.32789C14.25 4.73116 14.487 4.15886 14.909 3.7369C15.3309 3.31495 15.9032 3.07789 16.5 3.07789ZM5.99998 14.3279C5.55497 14.3279 5.11996 14.1959 4.74995 13.9487C4.37994 13.7015 4.09155 13.3501 3.92125 12.9389C3.75096 12.5278 3.7064 12.0754 3.79321 11.6389C3.88003 11.2025 4.09432 10.8016 4.40899 10.4869C4.72366 10.1722 5.12457 9.95794 5.56103 9.87113C5.99749 9.78431 6.44989 9.82887 6.86102 9.99916C7.27215 10.1695 7.62355 10.4578 7.87079 10.8279C8.11802 11.1979 8.24998 11.6329 8.24998 12.0779C8.24998 12.6746 8.01293 13.2469 7.59097 13.6689C7.16901 14.0908 6.59672 14.3279 5.99998 14.3279ZM16.5 21.0779C16.055 21.0779 15.62 20.9459 15.2499 20.6987C14.8799 20.4515 14.5915 20.1001 14.4213 19.6889C14.251 19.2778 14.2064 18.8254 14.2932 18.3889C14.38 17.9525 14.5943 17.5516 14.909 17.2369C15.2237 16.9222 15.6246 16.7079 16.061 16.6211C16.4975 16.5343 16.9499 16.5789 17.361 16.7492C17.7722 16.9195 18.1236 17.2078 18.3708 17.5779C18.618 17.9479 18.75 18.3829 18.75 18.8279C18.75 19.4246 18.5129 19.9969 18.091 20.4189C17.669 20.8408 17.0967 21.0779 16.5 21.0779Z" fill="#34749C"/>
</svg>
