<svg width="24" height="25" viewBox="0 0 24 25" fill="none" xmlns="http://www.w3.org/2000/svg">
<path d="M12 2.32788C10.0716 2.32788 8.18657 2.89971 6.58319 3.97105C4.97982 5.0424 3.73013 6.56514 2.99218 8.34672C2.25422 10.1283 2.06114 12.0887 2.43735 13.98C2.81355 15.8713 3.74215 17.6086 5.10571 18.9722C6.46928 20.3357 8.20656 21.2643 10.0979 21.6405C11.9892 22.0167 13.9496 21.8237 15.7312 21.0857C17.5127 20.3478 19.0355 19.0981 20.1068 17.4947C21.1782 15.8913 21.75 14.0062 21.75 12.0779C21.7473 9.49286 20.7192 7.01449 18.8913 5.1866C17.0634 3.35872 14.585 2.33061 12 2.32788ZM12 20.3279C10.3683 20.3279 8.77326 19.844 7.41655 18.9375C6.05984 18.031 5.00242 16.7425 4.378 15.235C3.75358 13.7275 3.5902 12.0687 3.90853 10.4684C4.22685 8.86804 5.01259 7.39803 6.16637 6.24425C7.32016 5.09047 8.79017 4.30473 10.3905 3.9864C11.9909 3.66807 13.6497 3.83145 15.1571 4.45587C16.6646 5.0803 17.9531 6.13772 18.8596 7.49443C19.7662 8.85113 20.25 10.4462 20.25 12.0779C20.2475 14.2652 19.3775 16.3621 17.8309 17.9088C16.2843 19.4554 14.1873 20.3254 12 20.3279ZM7.5 10.2029C7.5 9.98038 7.56598 9.76287 7.6896 9.57786C7.81322 9.39286 7.98892 9.24866 8.19449 9.16352C8.40005 9.07837 8.62625 9.05609 8.84448 9.0995C9.06271 9.14291 9.26317 9.25005 9.4205 9.40739C9.57783 9.56472 9.68498 9.76518 9.72839 9.9834C9.7718 10.2016 9.74952 10.4278 9.66437 10.6334C9.57922 10.839 9.43503 11.0147 9.25002 11.1383C9.06502 11.2619 8.84751 11.3279 8.625 11.3279C8.32664 11.3279 8.04049 11.2094 7.82951 10.9984C7.61853 10.7874 7.5 10.5012 7.5 10.2029ZM16.5 10.2029C16.5 10.4254 16.434 10.6429 16.3104 10.8279C16.1868 11.0129 16.0111 11.1571 15.8055 11.2422C15.6 11.3274 15.3738 11.3497 15.1555 11.3063C14.9373 11.2629 14.7368 11.1557 14.5795 10.9984C14.4222 10.841 14.315 10.6406 14.2716 10.4224C14.2282 10.2041 14.2505 9.97793 14.3356 9.77236C14.4208 9.5668 14.565 9.39109 14.75 9.26748C14.935 9.14386 15.1525 9.07788 15.375 9.07788C15.6734 9.07788 15.9595 9.19641 16.1705 9.40739C16.3815 9.61836 16.5 9.90451 16.5 10.2029ZM16.3997 14.7029C15.435 16.3707 13.8309 17.3279 12 17.3279C10.1691 17.3279 8.56594 16.3716 7.60125 14.7029C7.54699 14.6175 7.51055 14.5221 7.49413 14.4222C7.47772 14.3224 7.48166 14.2203 7.50573 14.1221C7.52979 14.0238 7.57348 13.9315 7.63417 13.8506C7.69485 13.7696 7.77128 13.7018 7.85886 13.6512C7.94643 13.6006 8.04334 13.5682 8.14375 13.556C8.24417 13.5438 8.34601 13.552 8.44316 13.5802C8.5403 13.6084 8.63074 13.6559 8.70904 13.72C8.78734 13.784 8.85187 13.8633 8.89875 13.9529C9.59907 15.1632 10.6997 15.8279 12 15.8279C13.3003 15.8279 14.4009 15.1623 15.1003 13.9529C15.1998 13.7806 15.3636 13.6548 15.5558 13.6033C15.7479 13.5518 15.9527 13.5787 16.125 13.6782C16.2973 13.7777 16.4231 13.9415 16.4746 14.1336C16.5261 14.3258 16.4991 14.5306 16.3997 14.7029Z" fill="#34749C"/>
</svg>
